<svg width="228" height="96" viewBox="0 0 228 96" fill="none" xmlns="http://www.w3.org/2000/svg">
<path d="M27.8816 82.9023C27.8816 82.9023 27.6849 83.0917 27.5725 83.1728C27.2071 83.4974 26.8136 83.8219 26.4482 84.1465C26.1953 84.3629 25.9142 84.5793 25.6612 84.7957C24.7899 85.5259 23.7781 86.0128 22.7663 86.4997C21.8388 86.9324 20.8831 87.3111 19.8713 87.5816C19.1967 87.7709 18.466 87.8791 17.7633 87.8791C16.7515 87.8791 15.7115 87.8791 14.6997 87.825C13.9689 87.7709 13.2382 87.5816 12.5074 87.3381C11.7485 87.0947 10.9896 86.7972 10.2589 86.4726C9.38757 86.0398 8.57248 85.553 7.81361 84.9579C7.39201 84.6334 6.97041 84.2547 6.54881 83.9031C6.40828 83.7949 6.23964 83.7137 6.12722 83.5785C5.98668 83.4433 5.84615 83.308 5.70562 83.1457C5.00296 82.4155 4.44083 81.6311 3.93491 80.7926C3.85059 80.6574 3.68195 80.5492 3.59763 80.4139C3.4571 80.1976 3.31657 79.9812 3.20414 79.7377C2.86686 78.9804 2.52959 78.196 2.33284 77.4116C2.07988 76.492 1.91124 75.5994 1.85503 74.6528C1.82692 73.8684 1.77071 73.084 1.7145 72.3267C1.65828 71.6505 1.60207 70.9743 1.54586 70.2981C1.48964 69.676 1.43343 69.0539 1.40533 68.4318C1.32101 67.377 1.26479 66.2951 1.15237 65.2402C0.983728 63.6714 0.871302 62.1027 0.758876 60.5339C0.702663 59.8848 0.674556 59.2627 0.618343 58.6135C0.337278 56.7472 0.252959 54.8809 0.0843195 52.9876C0.0843195 52.7442 0.0281065 52.4737 0 52.2303C0 52.1491 0 52.095 0 52.0139C0.252959 52.0139 0.477811 52.0139 0.702663 52.0139C1.01183 52.0139 1.32101 52.068 1.60207 52.095C1.85503 52.095 2.10799 52.2032 2.36095 52.2844C3.06361 52.5548 3.76627 52.8253 4.41272 53.2581C4.97485 53.6367 5.48077 54.0966 5.93047 54.5834C6.63313 55.3407 7.11095 56.2604 7.39201 57.2341C7.56065 57.8562 7.72929 58.4512 7.89793 59.1274C7.98225 59.1274 8.12278 59.1274 8.26331 59.1274C12.7885 59.1274 17.3136 59.1815 21.8388 59.2086C22.5695 59.2086 23.1598 59.5061 23.5532 60.047C23.9186 60.5339 24.003 61.0749 23.7781 61.6699C23.5532 62.292 23.1317 62.6977 22.4852 62.887C21.9231 63.0764 21.3609 63.1846 20.7988 63.3469C20.3491 63.4821 19.9275 63.6173 19.4778 63.7255C18.8314 63.9149 18.1849 64.1312 17.5104 64.2394C17.2855 64.2665 17.0606 64.3747 16.8358 64.4558C16.3861 64.6181 15.9083 64.591 15.4586 64.6992C14.9527 64.8074 14.4467 64.9968 13.9408 65.132C13.2944 65.3213 12.6479 65.4836 11.9734 65.673C11.5518 65.7811 11.1302 65.9164 10.7086 66.0246C10.3713 66.1328 10.0059 66.2139 9.66864 66.2951C9.30325 66.4032 8.93787 66.5114 8.57248 66.6196C8.57248 66.9442 8.57248 67.2417 8.57248 67.5392C8.57248 67.8368 8.71302 68.1343 8.68491 68.4318C8.6287 68.8375 8.79733 69.2432 8.76923 69.649C8.74112 70.0006 8.85355 70.2981 8.88165 70.6227C8.88165 70.9473 8.90976 71.2718 8.93787 71.5964C8.93787 71.7587 8.93787 71.921 8.93787 72.0562C8.93787 72.0833 8.93787 72.1373 8.93787 72.1644C9.16272 72.7053 9.0784 73.2463 9.0784 73.7873C9.0784 74.22 9.16272 74.6257 9.27515 75.0585C9.38757 75.5454 9.58432 75.9781 9.83728 76.4109C10.0902 76.8166 10.3151 77.2764 10.568 77.6551C10.7648 77.9526 11.0459 78.2231 11.2988 78.4665C11.5799 78.737 11.8609 79.0075 12.1701 79.2779C12.5074 79.5755 12.8728 79.8459 13.3506 79.9812C13.463 80.0082 13.5754 80.0623 13.6598 80.1435C13.9408 80.4139 14.2781 80.441 14.6154 80.441C14.8683 80.441 15.1494 80.3869 15.4024 80.441C16.105 80.6303 16.8077 80.5492 17.4822 80.5492C17.5947 80.5492 17.7352 80.4951 17.8476 80.468C18.0444 80.468 18.2411 80.3869 18.4379 80.4139C18.9438 80.468 19.3935 80.3057 19.8432 80.0894C21.6701 79.1697 22.963 77.7903 23.6095 75.8699C23.8905 75.0314 24.0311 74.193 24.0873 73.3004C24.0873 72.5972 24.1435 71.8939 24.2559 71.2177C24.3402 70.6768 24.5089 70.1358 24.6775 69.5678C24.818 69.081 24.9867 68.5671 25.1553 68.0802C25.2115 67.9179 25.2959 67.8097 25.4083 67.7015C25.5488 67.5933 25.605 67.404 25.6893 67.2417C26.0828 66.4303 26.5606 65.6189 27.1228 64.9156C27.4601 64.4829 27.8817 64.1042 28.2751 63.6985C29.5118 62.4002 30.9172 61.3453 32.5473 60.5339C33.6716 59.9659 34.8802 59.5872 36.1169 59.3438C37.2692 59.1274 38.4216 59.0192 39.574 59.1004C40.1361 59.1274 40.6701 59.2086 41.2322 59.3168C41.71 59.4249 42.216 59.479 42.6938 59.6143C44.3802 60.0741 45.926 60.8044 47.3313 61.8322C47.5843 62.0215 47.8654 62.2109 48.1183 62.4002C48.2308 62.4813 48.3432 62.5895 48.4556 62.6977C48.3432 62.7789 48.287 62.833 48.2026 62.86C47.247 63.401 46.3195 64.023 45.3358 64.4829C44.1272 65.0509 43.0592 65.8082 41.8787 66.4032C41.7382 66.4844 41.5976 66.5655 41.4852 66.6467C41.2885 66.7819 41.1198 66.7819 40.8669 66.7008C40.108 66.4573 39.2929 66.3491 38.4778 66.4032C37.213 66.5114 36.0606 66.8631 35.0207 67.5933C34.8802 67.7015 34.7115 67.7827 34.5148 67.7827C34.3743 67.7827 34.2337 67.8638 34.1494 67.945C33.25 68.6482 32.6316 69.5949 32.1257 70.5686C31.8166 71.1636 31.5917 71.7857 31.5355 72.4619C31.4793 73.1381 31.5074 73.8414 31.4793 74.5175C31.4231 74.8151 31.3387 75.1396 31.3387 75.4372C31.2825 76.3027 31.0015 77.1141 30.7766 77.9526C30.7204 78.1419 30.6642 78.3313 30.5799 78.4935C30.4393 78.8181 30.3269 79.1156 30.1864 79.4402C30.074 79.7107 29.9334 80.0082 29.821 80.2787C29.821 80.3328 29.7648 80.3598 29.7086 80.3869C29.5399 80.5762 29.3432 80.7385 29.2308 80.9549C28.8654 81.6581 28.3876 82.3073 27.7973 82.8753L27.8816 82.9023Z" fill="#133574"/>
<path d="M27.8816 82.9007C28.4719 82.3327 28.9497 81.7107 29.3151 80.9804C29.4275 80.764 29.6242 80.6017 29.7929 80.4124C29.821 80.3853 29.8772 80.3312 29.9053 80.3042C30.0458 80.0337 30.1583 79.7362 30.2707 79.4657C30.4112 79.1411 30.5517 78.8436 30.6642 78.519C30.7485 78.3297 30.8047 78.1674 30.8609 77.9781C31.0858 77.1396 31.3949 76.3282 31.423 75.4627C31.423 75.1651 31.5355 74.8406 31.5636 74.543C31.676 74.7594 31.676 75.0299 31.7322 75.2733C31.8165 75.652 31.9852 76.0036 32.1538 76.3552C32.6597 77.5453 33.4186 78.6002 34.4867 79.3846C34.9645 79.7362 35.5266 80.0067 36.0606 80.3042C36.3136 80.4394 36.6228 80.4665 36.9319 80.4935C37.3254 80.4935 37.747 80.5747 38.1405 80.5747C38.7307 80.5747 39.321 80.5747 39.9112 80.5747C40.3328 80.5747 40.7825 80.5206 41.2041 80.4935C41.4009 80.4935 41.5976 80.4665 41.7663 80.3853C43.6494 79.5739 44.9985 78.2756 45.7855 76.4364C46.1228 75.6249 46.6006 74.9217 47.3314 74.3808C47.4719 74.2726 47.6124 74.2185 47.7811 74.1644C47.9216 74.1103 48.0621 74.0562 48.1745 74.0021C49.5518 73.3529 50.929 73.3529 52.3062 74.0021C52.7278 74.1914 53.1494 74.3808 53.4586 74.7324C54.0207 75.3545 54.4423 76.0577 54.7234 76.8421C54.8639 77.1937 55.0325 77.5183 55.2855 77.8158C55.5385 78.1133 55.7633 78.4379 56.0444 78.7084C56.3254 78.9788 56.6627 79.2493 57 79.4657C57.534 79.8173 58.1243 80.1148 58.7145 80.3312C58.9675 80.4124 59.2766 80.4935 59.5577 80.4935C60.6539 80.4935 61.7219 80.4935 62.8181 80.4935C63.071 80.4935 63.3521 80.4394 63.5769 80.3583C64.392 80.0607 65.1509 79.655 65.8255 79.1411C66.6405 78.492 67.287 77.7076 67.7367 76.788C67.9616 76.3282 68.2426 75.8954 68.2707 75.3815C68.2707 75.1922 68.3832 75.0299 68.4394 74.8406C68.5799 74.3267 68.608 73.8128 68.608 73.2718C68.608 71.1621 68.608 69.0794 68.608 66.9697C68.608 66.8345 68.608 66.6992 68.608 66.5369C68.4394 66.5369 68.3269 66.5369 68.1864 66.5369C65.9379 66.5369 63.6894 66.5099 61.4689 66.4829C61.2441 66.4829 61.0755 66.4288 60.9068 66.2665C60.6539 65.996 60.429 65.7255 60.1479 65.5091C58.4053 63.9674 56.8314 62.2634 55.1731 60.6406C54.7796 60.2349 54.3861 59.8291 53.9926 59.4234C53.9364 59.3693 53.8802 59.2882 53.7959 59.153C61.2441 59.153 68.608 59.207 76 59.2341C76 59.3964 76 59.5046 76 59.6398C76 64.1568 76 68.7008 76 73.2177C76 73.7857 75.8876 74.3537 75.8314 74.9217C75.8033 75.2463 75.7752 75.5979 75.719 75.9225C75.5784 76.6798 75.4379 77.4101 75.1287 78.1133C75.0444 78.3027 74.9882 78.5461 74.932 78.7354C74.932 78.7895 74.932 78.8436 74.8758 78.8707C74.679 79.3034 74.5104 79.7091 74.3136 80.1419C74.2574 80.2771 74.1169 80.3853 74.0045 80.5206C73.9482 80.5747 73.892 80.6287 73.8639 80.6828C73.4985 81.2238 73.1613 81.7647 72.7397 82.2787C72.2337 82.9007 71.7278 83.5228 71.0252 83.9826C70.7722 84.1449 70.5193 84.3884 70.2944 84.6047C69.7323 85.1187 69.0858 85.5244 68.4394 85.9301C67.8772 86.2546 67.287 86.5251 66.6968 86.7956C66.3033 86.9849 65.9098 87.1743 65.4882 87.2825C64.6169 87.5529 63.7456 87.8234 62.8181 87.9046C61.6376 88.0398 60.4571 88.0127 59.2766 87.9046C58.7988 87.8505 58.3491 87.7423 57.8994 87.6341C56.0725 87.1202 54.3861 86.3628 52.8964 85.2539C52.3062 84.8211 51.7722 84.3613 51.2101 83.9015C50.8166 83.5769 50.4512 83.2794 50.0577 82.9278C50.0015 82.9819 49.9172 83.036 49.8609 83.1171C49.5518 83.5499 49.0458 83.7933 48.6805 84.1449C48.287 84.5236 47.8654 84.8482 47.4157 85.1727C45.7012 86.3358 43.8742 87.2284 41.8225 87.6882C40.3047 88.0398 38.787 88.0668 37.2692 87.9046C35.7233 87.7423 34.2899 87.2825 32.8846 86.6333C31.3949 85.9301 30.0458 85.0375 28.8372 83.9286C28.5562 83.6581 28.1908 83.4958 27.9659 83.1712C27.9378 83.1171 27.8816 83.036 27.8535 82.9819L27.8816 82.9007Z" fill="#E8CE39"/>
<path d="M36.2013 73.5691C36.2294 72.4872 36.4824 71.7839 36.9883 71.2159C37.2693 70.8643 37.6909 70.6209 38.0844 70.3775C39.4617 69.566 40.8389 68.7817 42.2161 67.9702C42.4128 67.862 42.5815 67.8079 42.8063 67.8079C42.9469 67.8079 43.1155 67.7539 43.2279 67.6727C44.7457 66.8072 46.2634 65.9146 47.7531 65.022C48.1185 64.8057 48.512 64.6434 48.9617 64.6163C49.1303 64.6163 49.299 64.5352 49.4676 64.5352C49.7206 64.5352 49.9735 64.5352 50.1984 64.5352C50.4794 64.5352 50.7605 64.5893 51.0416 64.6704C51.2664 64.7245 51.4913 64.8057 51.688 64.9409C52.3345 65.3466 52.8685 65.8876 53.1214 66.6179C53.2339 66.9154 53.3463 67.2129 53.4306 67.5375C53.543 67.9973 53.4868 68.43 53.3182 68.8628C53.2058 69.1062 53.1496 69.3767 53.0371 69.6201C52.7842 70.1611 52.3626 70.5668 51.8848 70.9184C51.8848 70.9184 51.8567 70.9455 51.8285 70.9725C51.1821 71.0266 50.7324 71.4594 50.1984 71.7569C48.8774 72.4872 47.6126 73.2716 46.3197 74.0289C46.2634 74.0559 46.1791 74.1371 46.1229 74.1371C45.7294 74.1371 45.4202 74.4076 45.1111 74.5969C44.043 75.219 42.975 75.8411 41.9069 76.4361C41.2886 76.7877 40.6421 77.0312 39.9114 77.0312C38.8433 77.0312 37.9439 76.6255 37.2412 75.8681C36.5667 75.1378 36.2294 74.2723 36.2013 73.5961V73.5691Z" fill="#1C7E3B"/>
<path d="M68.72 55.258C68.5513 54.7711 68.9448 54.3384 69.0854 53.8515C69.1416 53.6622 69.3383 53.4999 69.4789 53.3376C70.0972 52.4991 70.9404 52.0934 72.0084 52.0123C73.751 51.877 75.0721 52.8778 75.578 54.1761C76.1401 55.6096 75.8871 56.9079 74.8472 58.0709C74.791 58.125 74.7067 58.2062 74.6223 58.2062C74.3694 58.2062 74.1726 58.3414 73.9759 58.4496C73.217 58.9094 72.3738 58.9906 71.5306 58.8553C71.1371 58.8012 70.7718 58.5307 70.4064 58.3685C70.2658 58.3144 70.1253 58.2332 69.9848 58.2062C69.8161 58.2062 69.7318 58.125 69.6194 58.0168C68.9448 57.2325 68.6357 56.3128 68.6919 55.2039L68.72 55.258Z" fill="#E8CE39"/>
<path d="M99.4 77.808H88.48V82.464H99.4V77.808ZM86.224 85.896V75.672H101.776V85.848H99.4V84.624H88.48V85.896H86.224ZM96.184 67.512L97.912 66.336C100.168 68.376 102.976 71.328 104.224 73.296L102.352 74.688C101.992 74.088 101.512 73.416 100.96 72.72C87.76 73.416 86.224 73.464 85.144 73.848C85.048 73.392 84.664 72.288 84.424 71.664C85 71.568 85.6 71.064 86.392 70.296C87.232 69.504 89.944 66.552 91.696 63.648L93.928 64.608C92.2 67.032 90.16 69.36 88.192 71.232L99.352 70.776C98.32 69.624 97.216 68.472 96.184 67.512ZM129.088 71.52L128.056 71.952C127.984 71.736 127.888 71.424 127.768 71.112C124.624 71.568 124.024 71.688 123.664 71.832C123.592 71.64 123.352 71.088 123.208 70.8C123.568 70.752 123.904 70.44 124.336 69.984C124.552 69.744 125.104 69.12 125.656 68.328C124.264 68.472 123.856 68.544 123.592 68.664C123.52 68.424 123.304 67.896 123.16 67.632C123.4 67.608 123.64 67.368 123.88 67.008C124.144 66.672 124.96 65.304 125.344 64.032L126.64 64.488C126.256 65.424 125.68 66.408 125.08 67.2L126.472 67.128C126.664 66.768 126.88 66.408 127.048 66.048L128.32 66.6C127.552 67.896 126.592 69.192 125.56 70.272L127.312 70.056C127.192 69.816 127.048 69.576 126.928 69.36L127.912 69C128.416 69.792 128.92 70.848 129.088 71.52ZM126.88 75.528L125.776 75.888C125.776 75.096 125.536 73.8 125.272 72.768L126.328 72.528C126.616 73.512 126.88 74.76 126.88 75.528ZM123.736 72.48L124.912 72.768C124.696 73.92 124.336 75.168 123.904 76.008C123.688 75.792 123.184 75.456 122.872 75.288C123.352 74.496 123.592 73.464 123.736 72.48ZM123.256 66.24V67.488H117.544V66.24H119.968C119.8 65.712 119.416 64.968 119.128 64.416L120.592 64.08C120.976 64.632 121.384 65.472 121.552 65.952L120.448 66.24H123.256ZM118.24 71.16V70.032H122.704V71.16H118.24ZM122.704 68.256V69.384H118.24V68.256H122.704ZM119.584 73.056V74.376H121.288V73.056H119.584ZM118.192 75.48V71.952H122.728V75.48H118.192ZM117.904 71.424L116.872 71.904C116.8 71.688 116.728 71.424 116.608 71.16C113.464 71.592 112.864 71.736 112.528 71.88C112.456 71.664 112.216 71.136 112.048 70.872C112.432 70.8 112.768 70.488 113.176 70.032C113.44 69.792 113.968 69.144 114.544 68.352C113.128 68.496 112.696 68.592 112.456 68.688C112.384 68.448 112.168 67.92 112 67.68C112.288 67.632 112.48 67.392 112.744 67.032C112.984 66.696 113.824 65.328 114.184 64.056L115.504 64.512C115.12 65.448 114.544 66.432 113.944 67.224L115.312 67.152C115.552 66.792 115.744 66.432 115.936 66.072L117.184 66.624C116.416 67.92 115.432 69.216 114.424 70.296L116.176 70.08C116.056 69.864 115.912 69.6 115.792 69.384L116.8 69.024C117.256 69.792 117.736 70.824 117.904 71.424ZM117.76 74.64L116.728 75.096C116.632 74.424 116.344 73.344 115.984 72.48L116.944 72.144C117.328 72.936 117.664 73.992 117.76 74.64ZM115.768 75.312L114.64 75.672C114.616 74.928 114.424 73.728 114.16 72.816L115.216 72.552C115.504 73.44 115.744 74.592 115.768 75.312ZM112.312 66.648L110.944 68.328C110.296 67.512 108.808 66.408 107.608 65.664L108.904 64.2C110.104 64.848 111.592 65.88 112.312 66.648ZM111.832 72.768L110.536 74.496C109.84 73.728 108.304 72.648 107.104 72L108.328 70.464C109.552 71.064 111.112 72.024 111.832 72.768ZM109.576 85.608L107.584 84.48C108.448 82.632 109.672 79.56 110.56 76.872L112.336 78.024C111.568 80.496 110.536 83.376 109.576 85.608ZM112.576 72.576L113.752 72.864C113.56 74.016 113.176 75.288 112.744 76.104C112.528 75.888 112.024 75.576 111.712 75.408C112.168 74.592 112.432 73.56 112.576 72.576ZM115.984 80.976H128.224C128.224 80.976 128.176 81.552 128.08 81.816C127.672 83.808 127.192 84.864 126.568 85.344C126.016 85.752 125.464 85.872 124.576 85.896C123.856 85.896 122.392 85.896 120.904 85.824C120.88 85.296 120.616 84.6 120.304 84.12C121.768 84.264 123.328 84.288 123.928 84.288C124.456 84.288 124.696 84.288 124.96 84.12C125.296 83.88 125.56 83.352 125.824 82.416H113.464C113.848 81.336 114.232 79.872 114.52 78.624H125.032V77.592H113.728V76.248H127.12V79.968H116.272L115.984 80.976ZM127.096 72.456L128.08 72.12C128.536 73.056 128.944 74.28 129.064 75.072L128.008 75.528C127.912 74.712 127.528 73.416 127.096 72.456ZM153.16 64.992V66.984H140.416V64.992H153.16ZM153.088 75.816L151.312 76.656C150.736 75.408 149.512 73.56 148.144 71.952C149.152 70.512 150.208 68.736 150.784 67.584L152.728 68.088C152.008 69.312 151.096 70.752 150.304 71.904C151.384 73.224 152.536 74.784 153.088 75.816ZM146.704 67.608L148.624 68.088C147.952 69.312 147.064 70.752 146.248 71.88C147.304 73.2 148.384 74.76 148.888 75.792L147.088 76.584C146.56 75.336 145.432 73.536 144.136 71.928C145.12 70.512 146.152 68.736 146.704 67.608ZM144.808 75.888L142.96 76.656C142.48 75.408 141.376 73.584 140.152 71.952C141.088 70.512 142.096 68.736 142.624 67.584L144.568 68.064C143.896 69.288 143.032 70.752 142.24 71.904C143.272 73.248 144.304 74.856 144.808 75.888ZM140.416 77.832L138.64 78.432C138.592 78.096 138.496 77.688 138.4 77.232C133.456 77.976 132.664 78.168 132.184 78.408C132.064 78 131.752 76.944 131.512 76.392C132.04 76.272 132.568 75.696 133.288 74.832C133.624 74.448 134.296 73.584 135.04 72.432C132.904 72.696 132.352 72.84 132.016 72.984C131.896 72.576 131.608 71.616 131.368 71.064C131.8 70.968 132.184 70.488 132.688 69.768C133.192 69.072 134.8 66.384 135.688 63.816L137.68 64.632C136.72 66.744 135.448 68.928 134.176 70.704L136.288 70.536C136.888 69.552 137.488 68.472 137.968 67.416L139.84 68.52C138.4 71.136 136.576 73.8 134.728 75.936L137.944 75.528C137.728 74.808 137.488 74.064 137.224 73.392L138.88 72.936C139.504 74.496 140.152 76.584 140.416 77.832ZM132.472 79.32L134.32 79.608C134.08 81.768 133.672 84.096 133.144 85.608C132.76 85.368 131.872 85.08 131.392 84.936C131.944 83.496 132.28 81.312 132.472 79.32ZM135.016 79.584L136.696 79.296C136.984 80.856 137.272 82.896 137.344 84.24L135.592 84.6C135.544 83.232 135.28 81.168 135.016 79.584ZM137.416 79.104L138.952 78.6C139.408 79.824 139.912 81.432 140.128 82.464L138.52 83.016C138.328 81.96 137.848 80.352 137.416 79.104ZM147.784 83.304H153.4V85.344H139.768V83.304H145.552V79.272H140.992V77.28H152.44V79.272H147.784V83.304ZM166.6 68.448L167.752 67.944H161.488V66.144H168.112C167.992 65.472 167.8 64.632 167.608 63.984L169.672 63.72C169.96 64.464 170.2 65.472 170.32 66.144H177.376V67.944H170.92L172.264 68.424C171.544 69.192 170.68 70.032 169.96 70.68H169.984V75.648H168.328V70.704H168.304L168.328 70.68C169.144 69.936 170.104 68.784 170.656 67.944H167.824C168.28 68.544 168.712 69.288 168.88 69.816L167.608 70.416C167.44 69.864 167.032 69.024 166.6 68.448ZM165.448 71.112H164.344C164.008 73.2 163.168 74.784 161.608 75.816C161.464 75.504 161.008 74.88 160.696 74.64C161.92 73.848 162.568 72.672 162.832 71.112H161.608V69.648H166.984V70.296C166.888 73.224 166.816 74.424 166.456 74.856C166.216 75.168 165.928 75.312 165.448 75.36C165.136 75.408 164.632 75.408 164.128 75.408C164.08 74.952 163.96 74.352 163.744 73.968C164.224 74.04 164.584 74.04 164.752 74.04C164.944 74.04 165.064 73.992 165.184 73.848C165.328 73.656 165.376 72.936 165.448 71.112ZM160.936 67.176L159.664 68.592C158.968 67.68 157.432 66.312 156.208 65.4L157.384 64.128C158.632 64.992 160.168 66.288 160.936 67.176ZM160.312 73.32L159.16 74.784C158.392 73.968 156.784 72.84 155.56 72.072L156.64 70.752C157.888 71.448 159.496 72.552 160.312 73.32ZM157.528 85.536L155.848 84.456C156.712 82.656 157.984 79.608 158.896 76.992L160.336 78.072C159.52 80.52 158.44 83.352 157.528 85.536ZM165.208 80.616H173.08V78.96H165.304C165.304 79.464 165.28 80.04 165.208 80.616ZM173.08 77.208V75.768H175.168V85.92H173.08V82.392H164.776C164.368 83.712 163.576 84.984 162.184 85.944C161.8 85.584 161.032 85.032 160.528 84.768C162.88 83.112 163.216 80.616 163.216 78.888V75.768H165.304V77.208H173.08ZM175.36 68.736L176.68 69.816C176.224 70.056 175.744 70.272 175.216 70.488C175.696 72.096 176.464 73.632 177.568 74.4C177.232 74.64 176.824 75.144 176.584 75.528C175.384 74.544 174.568 72.768 174.088 70.872C173.704 70.968 173.32 71.088 172.936 71.184V73.848L174.52 73.392C174.568 73.752 174.688 74.304 174.736 74.568C172.456 75.36 171.952 75.576 171.664 75.792V75.768C171.544 75.408 171.232 74.712 170.992 74.4C171.256 74.232 171.568 73.824 171.568 72.888V70.248H171.592L171.568 70.224C172.96 69.864 174.52 69.288 175.36 68.736ZM191.032 66.312V68.16H180.472V66.312H184.864C184.6 65.64 184.288 64.872 184 64.272L186.208 63.696C186.616 64.512 187.096 65.52 187.408 66.312H191.032ZM182.152 78.648L183.904 79.176C183.304 80.856 182.344 82.776 181.48 84C181.12 83.712 180.4 83.184 179.944 82.944C180.832 81.816 181.648 80.184 182.152 78.648ZM191.08 77.616H187V85.752H184.84V77.616H180.232V75.72H184.84V73.536H180.088V71.664H182.704C182.608 70.848 182.272 69.6 181.864 68.664L183.688 68.208C184.072 69.144 184.456 70.368 184.576 71.16L182.8 71.664H186.592C187.024 70.656 187.528 69.192 187.768 68.184L189.832 68.616C189.424 69.672 189.016 70.776 188.608 71.664H191.416V73.536H187V75.72H191.08V77.616ZM187.84 79.272L189.328 78.456C190.12 79.584 190.936 81.096 191.32 82.056L189.76 82.992C189.376 81.984 188.56 80.424 187.84 79.272ZM201.952 71.832V73.896H199.504V85.776H197.32V73.896H194.512V74.472C194.512 77.928 194.2 82.728 192.064 85.776C191.728 85.368 190.816 84.696 190.36 84.456C192.256 81.672 192.424 77.616 192.424 74.472V66.168C195.088 65.712 198.04 64.968 199.768 64.224L201.52 65.856C199.552 66.624 196.96 67.2 194.512 67.632V71.832H201.952ZM211.768 72.024H207.544C208.048 72.888 208.504 74.04 208.672 74.76L207.52 75.144H210.352C210.88 74.184 211.432 72.936 211.768 72.024ZM210.736 77.04V79.344H214.816V81.24H210.736V85.8H208.672V81.24H204.376V79.344H208.672V77.04H204.88V75.144H206.896C206.728 74.376 206.296 73.296 205.864 72.48L207.352 72.024H204.376V70.128H208.672V68.064H205.072V66.192H208.672V63.936H210.736V66.192H214.216V68.064H210.736V70.128H214.792V72.024H212.152L213.712 72.432C213.256 73.32 212.752 74.328 212.296 75.144H214.336V77.04H210.736ZM217.624 74.976V84.024C218.68 83.232 219.616 82.272 220.408 81.168C219.232 79.368 218.296 77.256 217.624 74.976ZM223.24 74.856H219.448C219.976 76.464 220.696 77.976 221.56 79.32C222.328 77.928 222.88 76.416 223.24 74.856ZM224.272 72.96L225.64 73.464C225.136 76.248 224.248 78.864 222.904 81.12C223.96 82.296 225.136 83.28 226.48 83.952C225.976 84.336 225.328 85.176 224.992 85.728C223.768 85.032 222.664 84.072 221.68 82.92C220.792 84.096 219.736 85.104 218.536 85.92C218.32 85.584 217.984 85.224 217.624 84.888V85.848H215.584V64.944H225.064V69.48C225.064 70.512 224.848 71.088 224.032 71.376C223.24 71.712 222.016 71.712 220.216 71.712C220.12 71.136 219.832 70.32 219.544 69.792C220.912 69.84 222.184 69.84 222.52 69.816C222.904 69.792 223 69.72 223 69.456V66.912H217.624V73.056H223.888L224.272 72.96Z" fill="#5F93B0"/>
</svg>
